<svg xmlns="http://www.w3.org/2000/svg" viewBox="0 0 1280 640" width="1280" height="640">
<defs>
  <radialGradient id="amb" cx="0.30" cy="0.46" r="0.76"><stop offset="0" stop-color="#1d1148"/><stop offset="0.44" stop-color="#0b0920"/><stop offset="1" stop-color="#030409"/></radialGradient>
  <linearGradient id="neon" x1="0" y1="0" x2="1" y2="1"><stop offset="0" stop-color="#C4A6FF"/><stop offset="0.5" stop-color="#7C5CFF"/><stop offset="1" stop-color="#22D3EE"/></linearGradient>
  <linearGradient id="txtg" x1="0" y1="0" x2="0" y2="1"><stop offset="0" stop-color="#FFFFFF"/><stop offset="0.6" stop-color="#F2EEFF"/><stop offset="1" stop-color="#B69CFF"/></linearGradient>
  <linearGradient id="nodeGloss" x1="0" y1="0" x2="0" y2="1"><stop offset="0" stop-color="#FFFFFF" stop-opacity="0.07"/><stop offset="1" stop-color="#FFFFFF" stop-opacity="0"/></linearGradient>
  <filter id="bL" x="-100%" y="-100%" width="300%" height="300%"><feGaussianBlur stdDeviation="34"/></filter>
  <filter id="bS" x="-60%" y="-60%" width="220%" height="220%"><feGaussianBlur stdDeviation="4.5"/></filter>
  <pattern id="mesh" width="48" height="48" patternUnits="userSpaceOnUse"><path d="M48 0H0V48" fill="none" stroke="#8B5CF6" stroke-opacity="0.055" stroke-width="1"/></pattern>
</defs>
<rect width="1280" height="640" fill="url(#amb)"/>
<rect width="1280" height="640" fill="url(#mesh)"/>
<ellipse cx="320" cy="300" rx="330" ry="290" fill="#7C5CFF" opacity="0.11" filter="url(#bL)"/>

<g transform="translate(1132,30) scale(0.6)"><rect x="-6" y="-6" width="132" height="132" rx="26" fill="#0a0a20" opacity="0.55"/>
  <defs>
    <linearGradient id="wgl" x1="0" y1="0" x2="0" y2="1">
      <stop offset="0%" stop-color="#a78bfa"/>
      <stop offset="100%" stop-color="#7c3aed"/>
    </linearGradient>
    <linearGradient id="wgr" x1="0" y1="0" x2="0" y2="1">
      <stop offset="0%" stop-color="#67e8f9"/>
      <stop offset="100%" stop-color="#06b6d4"/>
    </linearGradient>
    <filter id="wglow">
      <feGaussianBlur stdDeviation="1.5" result="b"/>
      <feMerge><feMergeNode in="b"/><feMergeNode in="SourceGraphic"/></feMerge>
    </filter>
  </defs>

  <rect width="120" height="120" rx="22" fill="#ffffff" stroke="#e5e7eb" stroke-width="2"/>

  <!-- LOBE GAUCHE -->
  <path d="
    M60,28
    C56,24 48,22 41,25
    C34,28 30,35 30,42
    C27,44 25,49 27,54
    C24,57 23,63 26,68
    C29,73 35,75 40,73
    C42,78 46,82 52,82
    C57,82 60,79 60,79
  " fill="none" stroke="url(#wgl)" stroke-width="3" stroke-linecap="round" stroke-linejoin="round" filter="url(#wglow)"/>

  <!-- Sillons gauche -->
  <path d="M44,28 C41,36 40,44 42,52" fill="none" stroke="#a78bfa" stroke-width="1.8" stroke-dasharray="3,3" stroke-linecap="round" opacity="0.8"/>
  <path d="M35,40 C32,47 32,56 36,63" fill="none" stroke="#7c3aed" stroke-width="1.4" stroke-dasharray="2,4" stroke-linecap="round" opacity="0.6"/>

  <!-- LOBE DROIT -->
  <path d="
    M60,28
    C64,24 72,22 79,25
    C86,28 90,35 90,42
    C93,44 95,49 93,54
    C96,57 97,63 94,68
    C91,73 85,75 80,73
    C78,78 74,82 68,82
    C63,82 60,79 60,79
  " fill="none" stroke="url(#wgr)" stroke-width="3" stroke-linecap="round" stroke-linejoin="round" filter="url(#wglow)"/>

  <!-- Sillons droite -->
  <path d="M76,28 C79,36 80,44 78,52" fill="none" stroke="#67e8f9" stroke-width="1.8" stroke-dasharray="3,3" stroke-linecap="round" opacity="0.8"/>
  <path d="M85,40 C88,47 88,56 84,63" fill="none" stroke="#06b6d4" stroke-width="1.4" stroke-dasharray="2,4" stroke-linecap="round" opacity="0.6"/>

  <!-- SILLON MÉDIAN -->
  <line x1="60" y1="27" x2="60" y2="80" stroke="#7c3aed" stroke-width="1.5" stroke-dasharray="5,4" opacity="0.55"/>

  <!-- NOEUDS SYNAPTIQUES gauche -->
  <circle cx="40" cy="30" r="3.2" fill="#a78bfa" filter="url(#wglow)"/>
  <circle cx="28" cy="52" r="2.8" fill="#7c3aed" filter="url(#wglow)"/>
  <circle cx="38" cy="72" r="2.8" fill="#10b981" filter="url(#wglow)"/>

  <!-- NOEUDS SYNAPTIQUES droite -->
  <circle cx="80" cy="30" r="3.2" fill="#67e8f9" filter="url(#wglow)"/>
  <circle cx="92" cy="52" r="2.8" fill="#06b6d4" filter="url(#wglow)"/>
  <circle cx="82" cy="72" r="2.8" fill="#10b981" filter="url(#wglow)"/>

  <!-- AXONES vers centre -->
  <line x1="42" y1="32" x2="57" y2="50" stroke="#a78bfa" stroke-width="1.2" opacity="0.6"/>
  <line x1="30" y1="52" x2="54" y2="53" stroke="#7c3aed" stroke-width="1.2" opacity="0.6"/>
  <line x1="40" y1="70" x2="56" y2="57" stroke="#10b981" stroke-width="1.2" opacity="0.6"/>
  <line x1="78" y1="32" x2="63" y2="50" stroke="#67e8f9" stroke-width="1.2" opacity="0.6"/>
  <line x1="90" y1="52" x2="66" y2="53" stroke="#06b6d4" stroke-width="1.2" opacity="0.6"/>
  <line x1="80" y1="70" x2="64" y2="57" stroke="#10b981" stroke-width="1.2" opacity="0.6"/>

  <!-- NOEUD CENTRAL pulsant -->
  <circle cx="60" cy="53" r="6.5" fill="url(#wgl)" filter="url(#wglow)"/>
  <circle cx="60" cy="53" r="11" fill="none" stroke="url(#wgl)" stroke-width="1.5" opacity="0.4"/>
  <circle cx="60" cy="53" r="16" fill="none" stroke="url(#wgr)" stroke-width="0.8" opacity="0.45"/>

  <!-- TEXTE WEVIA -->
  <text x="60" y="97" font-family="Arial Black,Arial" font-weight="900" font-size="12"
        fill="#7c3aed" text-anchor="middle" letter-spacing="3">WEVIA</text>
  <text x="60" y="109" font-family="Arial,sans-serif" font-size="6.5"
        fill="#06b6d4" text-anchor="middle" letter-spacing="2" opacity="0.8">INTELLIGENCE</text>
</g>
<text x="1124" y="115" text-anchor="end" font-family="DejaVu Sans" font-weight="bold" font-size="18" fill="#B69CFF" letter-spacing="3">WEVIA</text>


<!-- ===== SCHEMA: agent -> gates -> production ===== -->
<g font-family="DejaVu Sans">
  <!-- AGENT node -->
  <g transform="translate(60,290)">
    <rect x="0" y="-52" width="118" height="104" rx="18" fill="#120e30" stroke="#8B5CF6" stroke-width="1.8"/>
    <rect x="0" y="-52" width="118" height="104" rx="18" fill="url(#nodeGloss)"/>
    <g transform="translate(59,-16)">
      <rect x="-19" y="-15" width="38" height="30" rx="9" fill="none" stroke="#C4B5FD" stroke-width="2.2"/>
      <circle cx="-8" cy="-3" r="3.4" fill="#22D3EE"/><circle cx="8" cy="-3" r="3.4" fill="#22D3EE"/>
      <path d="M-7,7 L7,7" stroke="#C4B5FD" stroke-width="2.2" stroke-linecap="round"/>
      <path d="M0,-15 L0,-24" stroke="#C4B5FD" stroke-width="2.2" stroke-linecap="round"/><circle cx="0" cy="-27" r="3" fill="#22D3EE"/>
    </g>
    <text x="59" y="26" text-anchor="middle" font-size="15" font-weight="bold" fill="#EDE9FE">AI AGENT</text>
    <text x="59" y="43" text-anchor="middle" font-size="10.5" fill="#7E86BB">wants to act</text>
  </g>

  <!-- flow line agent -> gates -->
  <path d="M178,290 L212,290" stroke="#8B5CF6" stroke-width="2" stroke-dasharray="5 6"/>
  <path d="M206,285 L214,290 L206,295 Z" fill="#A78BFA"/>

  <!-- GATE COLUMN -->
  <rect x="214" y="150" width="196" height="280" rx="20" fill="#0b0a22" stroke="#3B2E7E" stroke-width="1.4"/>
  <text x="312" y="176" text-anchor="middle" font-size="11" fill="#8B7FD4" letter-spacing="2.4">DOCTRINE GATES</text>

  <g>
    <g transform="translate(232,204)">
      <rect x="0" y="-16" width="160" height="34" rx="10" fill="#161240" stroke="#6D5BC4" stroke-width="1.2"/>
      <circle cx="19" cy="1" r="8.5" fill="none" stroke="#34D399" stroke-width="2"/><path d="M15,1 L18,4.6 L23.5,-2.6" stroke="#34D399" stroke-width="2.2" fill="none" stroke-linecap="round"/>
      <text x="37" y="5.5" font-size="12" fill="#D8D2F5">Human validates</text>
    </g>
    <g transform="translate(232,250)">
      <rect x="0" y="-16" width="160" height="34" rx="10" fill="#161240" stroke="#6D5BC4" stroke-width="1.2"/>
      <circle cx="19" cy="1" r="8.5" fill="none" stroke="#34D399" stroke-width="2"/><path d="M15,1 L18,4.6 L23.5,-2.6" stroke="#34D399" stroke-width="2.2" fill="none" stroke-linecap="round"/>
      <text x="37" y="5.5" font-size="12" fill="#D8D2F5">Backup exists</text>
    </g>
    <g transform="translate(232,296)">
      <rect x="0" y="-16" width="160" height="34" rx="10" fill="#161240" stroke="#6D5BC4" stroke-width="1.2"/>
      <circle cx="19" cy="1" r="8.5" fill="none" stroke="#34D399" stroke-width="2"/><path d="M15,1 L18,4.6 L23.5,-2.6" stroke="#34D399" stroke-width="2.2" fill="none" stroke-linecap="round"/>
      <text x="37" y="5.5" font-size="12" fill="#D8D2F5">Sandbox passed</text>
    </g>
    <g transform="translate(232,342)">
      <rect x="0" y="-16" width="160" height="34" rx="10" fill="#161240" stroke="#6D5BC4" stroke-width="1.2"/>
      <circle cx="19" cy="1" r="8.5" fill="none" stroke="#34D399" stroke-width="2"/><path d="M15,1 L18,4.6 L23.5,-2.6" stroke="#34D399" stroke-width="2.2" fill="none" stroke-linecap="round"/>
      <text x="37" y="5.5" font-size="12" fill="#D8D2F5">State verified</text>
    </g>
    <g transform="translate(232,388)">
      <rect x="0" y="-16" width="160" height="34" rx="10" fill="#2a1020" stroke="#B4436A" stroke-width="1.2"/>
      <g stroke="#F43F5E" stroke-width="2.2" stroke-linecap="round"><path d="M14,-4 L24,6"/><path d="M24,-4 L14,6"/></g>
      <text x="37" y="5.5" font-size="12" fill="#F9A8D4">Blast radius too wide</text>
    </g>
  </g>

  <!-- allowed path out -->
  <path d="M410,268 L470,268" stroke="#34D399" stroke-width="2.2"/>
  <path d="M464,263 L472,268 L464,273 Z" fill="#34D399"/>
  <text x="440" y="258" text-anchor="middle" font-size="10" fill="#5FCFA4">pass</text>

  <!-- blocked path -->
  <path d="M410,388 L470,388" stroke="#F43F5E" stroke-width="2.2" stroke-dasharray="5 5"/>
  <g transform="translate(478,388)"><circle r="12" fill="#2a1020" stroke="#F43F5E" stroke-width="2"/><path d="M-5,-5 L5,5 M5,-5 L-5,5" stroke="#F43F5E" stroke-width="2.4" stroke-linecap="round"/></g>
  <text x="478" y="416" text-anchor="middle" font-size="10" fill="#E4708F">halted</text>

  <!-- PRODUCTION node -->
  <g transform="translate(472,224)">
    <rect x="0" y="-46" width="112" height="92" rx="16" fill="#07211a" stroke="#34D399" stroke-width="1.8"/>
    <g transform="translate(56,-14)">
      <ellipse cx="0" cy="-9" rx="21" ry="7" fill="none" stroke="#6EE7B7" stroke-width="2"/>
      <path d="M-21,-9 L-21,9 A21,7 0 0 0 21,9 L21,-9" fill="none" stroke="#6EE7B7" stroke-width="2"/>
      <ellipse cx="0" cy="0" rx="21" ry="7" fill="none" stroke="#6EE7B7" stroke-width="1.4" opacity="0.6"/>
    </g>
    <text x="56" y="22" text-anchor="middle" font-size="14" font-weight="bold" fill="#D1FAE5">PRODUCTION</text>
    <text x="56" y="37" text-anchor="middle" font-size="10" fill="#5A9E85">intact</text>
  </g>
</g>

<g transform="translate(700,168)">
  <rect x="0" y="-26" width="74" height="36" rx="18" fill="url(#neon)" opacity="0.22" filter="url(#bS)"/>
  <rect x="0" y="-26" width="74" height="36" rx="18" fill="none" stroke="url(#neon)" stroke-width="2"/>
  <text x="37" y="0" text-anchor="middle" font-family="DejaVu Sans" font-weight="bold" font-size="22" fill="#B69CFF" letter-spacing="3">AI</text>
  <rect x="88" y="-11" width="46" height="2.5" rx="1.2" fill="url(#neon)" opacity="0.55"/>
</g>
<g font-family="DejaVu Sans" font-weight="bold">
  <text x="698" y="278" font-size="88" fill="#7C5CFF" opacity="0.5" filter="url(#bL)">ThreeAM</text>
  <text x="698" y="278" font-size="88" fill="url(#txtg)">ThreeAM</text>
</g>
<rect x="700" y="306" width="128" height="5" rx="2.5" fill="url(#neon)"/>
<g font-family="DejaVu Sans">
  <text x="700" y="360" font-size="25" fill="#DDD6FE">Stop your AI agent from</text>
  <text x="700" y="394" font-size="25" fill="#DDD6FE">breaking production at 3 a.m.</text>
  <text x="700" y="446" font-size="17" fill="#8B93C7">8 doctrines &#183; 3 real post-mortems &#183; zero deps</text>
</g>
<g font-family="DejaVu Sans"><rect x="700" y="486" width="3" height="19" rx="1.5" fill="#7C5CFF"/><text x="716" y="501" font-size="15" fill="#8B93C7">by Yacine Mahboub &#183; Founder of WEVIA</text></g>
<rect x="1" y="1" width="1278" height="638" fill="none" stroke="#7C5CFF" stroke-opacity="0.18" stroke-width="2"/>
</svg>