<svg xmlns="http://www.w3.org/2000/svg" viewBox="0 0 1280 640" width="1280" height="640">
<defs>
  <radialGradient id="amb" cx="0.26" cy="0.46" r="0.72"><stop offset="0" stop-color="#241452"/><stop offset="0.42" stop-color="#0c0a24"/><stop offset="1" stop-color="#030409"/></radialGradient>
  <linearGradient id="neon" x1="0" y1="0" x2="1" y2="1"><stop offset="0" stop-color="#C4A6FF"/><stop offset="0.5" stop-color="#7C5CFF"/><stop offset="1" stop-color="#22D3EE"/></linearGradient>
  <linearGradient id="txtg" x1="0" y1="0" x2="0" y2="1"><stop offset="0" stop-color="#FFFFFF"/><stop offset="0.6" stop-color="#F2EEFF"/><stop offset="1" stop-color="#B69CFF"/></linearGradient>
  <filter id="bL" x="-100%" y="-100%" width="300%" height="300%"><feGaussianBlur stdDeviation="30"/></filter>
  <filter id="bS" x="-60%" y="-60%" width="220%" height="220%"><feGaussianBlur stdDeviation="4.5"/></filter>
  <pattern id="mesh" width="48" height="48" patternUnits="userSpaceOnUse"><path d="M48 0H0V48" fill="none" stroke="#8B5CF6" stroke-opacity="0.06" stroke-width="1"/></pattern>
  <radialGradient id="stage" cx="0.5" cy="0.5" r="0.5"><stop offset="0" stop-color="#7C5CFF" stop-opacity="0.20"/><stop offset="1" stop-color="#7C5CFF" stop-opacity="0"/></radialGradient>
</defs>
<rect width="1280" height="640" fill="url(#amb)"/>
<rect width="1280" height="640" fill="url(#mesh)"/>
<ellipse cx="300" cy="330" rx="300" ry="290" fill="#7C5CFF" opacity="0.14" filter="url(#bL)"/>
<ellipse cx="300" cy="350" rx="230" ry="220" fill="url(#stage)"/>

<g transform="translate(1132,30) scale(0.6)"><rect x="-6" y="-6" width="132" height="132" rx="26" fill="#0a0a20" opacity="0.55"/>
  <defs>
    <linearGradient id="wgl" x1="0" y1="0" x2="0" y2="1">
      <stop offset="0%" stop-color="#a78bfa"/>
      <stop offset="100%" stop-color="#7c3aed"/>
    </linearGradient>
    <linearGradient id="wgr" x1="0" y1="0" x2="0" y2="1">
      <stop offset="0%" stop-color="#67e8f9"/>
      <stop offset="100%" stop-color="#06b6d4"/>
    </linearGradient>
    <filter id="wglow">
      <feGaussianBlur stdDeviation="1.5" result="b"/>
      <feMerge><feMergeNode in="b"/><feMergeNode in="SourceGraphic"/></feMerge>
    </filter>
  </defs>

  <rect width="120" height="120" rx="22" fill="#ffffff" stroke="#e5e7eb" stroke-width="2"/>

  <!-- LOBE GAUCHE -->
  <path d="
    M60,28
    C56,24 48,22 41,25
    C34,28 30,35 30,42
    C27,44 25,49 27,54
    C24,57 23,63 26,68
    C29,73 35,75 40,73
    C42,78 46,82 52,82
    C57,82 60,79 60,79
  " fill="none" stroke="url(#wgl)" stroke-width="3" stroke-linecap="round" stroke-linejoin="round" filter="url(#wglow)"/>

  <!-- Sillons gauche -->
  <path d="M44,28 C41,36 40,44 42,52" fill="none" stroke="#a78bfa" stroke-width="1.8" stroke-dasharray="3,3" stroke-linecap="round" opacity="0.8"/>
  <path d="M35,40 C32,47 32,56 36,63" fill="none" stroke="#7c3aed" stroke-width="1.4" stroke-dasharray="2,4" stroke-linecap="round" opacity="0.6"/>

  <!-- LOBE DROIT -->
  <path d="
    M60,28
    C64,24 72,22 79,25
    C86,28 90,35 90,42
    C93,44 95,49 93,54
    C96,57 97,63 94,68
    C91,73 85,75 80,73
    C78,78 74,82 68,82
    C63,82 60,79 60,79
  " fill="none" stroke="url(#wgr)" stroke-width="3" stroke-linecap="round" stroke-linejoin="round" filter="url(#wglow)"/>

  <!-- Sillons droite -->
  <path d="M76,28 C79,36 80,44 78,52" fill="none" stroke="#67e8f9" stroke-width="1.8" stroke-dasharray="3,3" stroke-linecap="round" opacity="0.8"/>
  <path d="M85,40 C88,47 88,56 84,63" fill="none" stroke="#06b6d4" stroke-width="1.4" stroke-dasharray="2,4" stroke-linecap="round" opacity="0.6"/>

  <!-- SILLON MÉDIAN -->
  <line x1="60" y1="27" x2="60" y2="80" stroke="#7c3aed" stroke-width="1.5" stroke-dasharray="5,4" opacity="0.55"/>

  <!-- NOEUDS SYNAPTIQUES gauche -->
  <circle cx="40" cy="30" r="3.2" fill="#a78bfa" filter="url(#wglow)"/>
  <circle cx="28" cy="52" r="2.8" fill="#7c3aed" filter="url(#wglow)"/>
  <circle cx="38" cy="72" r="2.8" fill="#10b981" filter="url(#wglow)"/>

  <!-- NOEUDS SYNAPTIQUES droite -->
  <circle cx="80" cy="30" r="3.2" fill="#67e8f9" filter="url(#wglow)"/>
  <circle cx="92" cy="52" r="2.8" fill="#06b6d4" filter="url(#wglow)"/>
  <circle cx="82" cy="72" r="2.8" fill="#10b981" filter="url(#wglow)"/>

  <!-- AXONES vers centre -->
  <line x1="42" y1="32" x2="57" y2="50" stroke="#a78bfa" stroke-width="1.2" opacity="0.6"/>
  <line x1="30" y1="52" x2="54" y2="53" stroke="#7c3aed" stroke-width="1.2" opacity="0.6"/>
  <line x1="40" y1="70" x2="56" y2="57" stroke="#10b981" stroke-width="1.2" opacity="0.6"/>
  <line x1="78" y1="32" x2="63" y2="50" stroke="#67e8f9" stroke-width="1.2" opacity="0.6"/>
  <line x1="90" y1="52" x2="66" y2="53" stroke="#06b6d4" stroke-width="1.2" opacity="0.6"/>
  <line x1="80" y1="70" x2="64" y2="57" stroke="#10b981" stroke-width="1.2" opacity="0.6"/>

  <!-- NOEUD CENTRAL pulsant -->
  <circle cx="60" cy="53" r="6.5" fill="url(#wgl)" filter="url(#wglow)"/>
  <circle cx="60" cy="53" r="11" fill="none" stroke="url(#wgl)" stroke-width="1.5" opacity="0.4"/>
  <circle cx="60" cy="53" r="16" fill="none" stroke="url(#wgr)" stroke-width="0.8" opacity="0.45"/>

  <!-- TEXTE WEVIA -->
  <text x="60" y="97" font-family="Arial Black,Arial" font-weight="900" font-size="12"
        fill="#7c3aed" text-anchor="middle" letter-spacing="3">WEVIA</text>
  <text x="60" y="109" font-family="Arial,sans-serif" font-size="6.5"
        fill="#06b6d4" text-anchor="middle" letter-spacing="2" opacity="0.8">INTELLIGENCE</text>
</g>
<text x="1124" y="115" text-anchor="end" font-family="DejaVu Sans" font-weight="bold" font-size="18" fill="#B69CFF" letter-spacing="3">WEVIA</text>

<!-- MASCOT centre-stage left, large -->
<g transform="translate(126,124) scale(1.02)">
<defs>
  <!-- volumetric body: light from top-left -->
  <radialGradient id="s_body" cx="0.34" cy="0.26" r="0.82">
    <stop offset="0" stop-color="#B9A0FF"/><stop offset="0.42" stop-color="#8B6FFF"/>
    <stop offset="0.78" stop-color="#6141D6"/><stop offset="1" stop-color="#3F2795"/>
  </radialGradient>
  <radialGradient id="s_head" cx="0.34" cy="0.24" r="0.8">
    <stop offset="0" stop-color="#C6B1FF"/><stop offset="0.45" stop-color="#9377FF"/>
    <stop offset="0.8" stop-color="#6845DE"/><stop offset="1" stop-color="#452B9E"/>
  </radialGradient>
  <linearGradient id="s_rim" x1="0" y1="0" x2="1" y2="1">
    <stop offset="0" stop-color="#E9DEFF" stop-opacity="0"/><stop offset="0.72" stop-color="#E9DEFF" stop-opacity="0"/>
    <stop offset="1" stop-color="#DCC9FF" stop-opacity="0.85"/>
  </linearGradient>
  <radialGradient id="s_spec" cx="0.5" cy="0.5" r="0.5">
    <stop offset="0" stop-color="#FFFFFF" stop-opacity="0.85"/><stop offset="0.55" stop-color="#FFFFFF" stop-opacity="0.18"/><stop offset="1" stop-color="#FFFFFF" stop-opacity="0"/>
  </radialGradient>
  <radialGradient id="s_shadow" cx="0.5" cy="0.5" r="0.5">
    <stop offset="0" stop-color="#1A0F3D" stop-opacity="0.55"/><stop offset="0.6" stop-color="#1A0F3D" stop-opacity="0.18"/><stop offset="1" stop-color="#1A0F3D" stop-opacity="0"/>
  </radialGradient>
  <!-- visor: glossy dark glass -->
  <linearGradient id="s_visor" x1="0" y1="0" x2="0" y2="1">
    <stop offset="0" stop-color="#1B1442"/><stop offset="0.5" stop-color="#0C0824"/><stop offset="1" stop-color="#160F35"/>
  </linearGradient>
  <linearGradient id="s_gloss" x1="0" y1="0" x2="0" y2="1">
    <stop offset="0" stop-color="#FFFFFF" stop-opacity="0.30"/><stop offset="1" stop-color="#FFFFFF" stop-opacity="0"/>
  </linearGradient>
  <!-- shield: metallic emerald -->
  <linearGradient id="s_shield" x1="0.15" y1="0" x2="0.9" y2="1">
    <stop offset="0" stop-color="#7DF7CE"/><stop offset="0.35" stop-color="#34D399"/>
    <stop offset="0.72" stop-color="#12A374"/><stop offset="1" stop-color="#0A6E52"/>
  </linearGradient>
  <linearGradient id="s_shieldGloss" x1="0" y1="0" x2="0.4" y2="1">
    <stop offset="0" stop-color="#FFFFFF" stop-opacity="0.55"/><stop offset="1" stop-color="#FFFFFF" stop-opacity="0"/>
  </linearGradient>
  <radialGradient id="s_eye" cx="0.35" cy="0.3" r="0.75">
    <stop offset="0" stop-color="#A5F3FC"/><stop offset="0.5" stop-color="#22D3EE"/><stop offset="1" stop-color="#0B8FA8"/>
  </radialGradient>
  <linearGradient id="s_leg" x1="0" y1="0" x2="1" y2="0">
    <stop offset="0" stop-color="#7355E6"/><stop offset="0.5" stop-color="#5B3FD0"/><stop offset="1" stop-color="#412A9E"/>
  </linearGradient>
</defs>

<!-- contact shadow (soft, radial) -->
<ellipse cx="170" cy="352" rx="92" ry="18" fill="url(#s_shadow)"/>

<!-- legs -->
<g>
  <rect x="126" y="300" width="30" height="42" rx="15" fill="url(#s_leg)"/>
  <rect x="184" y="300" width="30" height="42" rx="15" fill="url(#s_leg)"/>
  <ellipse cx="141" cy="343" rx="22" ry="10" fill="#2FBE8A"/><ellipse cx="141" cy="340" rx="20" ry="8" fill="#4FE0A8"/>
  <ellipse cx="199" cy="343" rx="22" ry="10" fill="#2FBE8A"/><ellipse cx="199" cy="340" rx="20" ry="8" fill="#4FE0A8"/>
</g>

<!-- antenna -->
<path d="M170,74 L170,44" stroke="#6845DE" stroke-width="6" stroke-linecap="round"/>
<circle cx="170" cy="38" r="11" fill="#0F172A"/>
<circle cx="170" cy="38" r="9" fill="url(#s_eye)"/>
<circle cx="167" cy="35" r="3.4" fill="#F0FEFF" opacity="0.95"/>

<!-- BODY -->
<rect x="96" y="176" width="148" height="140" rx="52" fill="url(#s_body)"/>
<rect x="96" y="176" width="148" height="140" rx="52" fill="url(#s_rim)"/>
<ellipse cx="136" cy="206" rx="34" ry="20" fill="url(#s_spec)" opacity="0.55"/>

<!-- chest plate: clean, readable, NO blur -->
<rect x="126" y="216" width="88" height="62" rx="20" fill="url(#s_visor)" stroke="#4B3A94" stroke-width="2"/>
<rect x="130" y="220" width="80" height="26" rx="14" fill="url(#s_gloss)"/>
<!-- crisp lock glyph = "guarded" -->
<g transform="translate(170,250)">
  <rect x="-16" y="-4" width="32" height="24" rx="6" fill="#34D399"/>
  <rect x="-16" y="-4" width="32" height="10" rx="5" fill="#6EE7B7" opacity="0.6"/>
  <path d="M-9,-4 L-9,-12 A9,9 0 0 1 9,-12 L9,-4" fill="none" stroke="#6EE7B7" stroke-width="4.5" stroke-linecap="round"/>
  <circle cx="0" cy="7" r="3.6" fill="#064E3B"/>
</g>

<!-- HEAD -->
<rect x="88" y="74" width="164" height="118" rx="50" fill="url(#s_head)"/>
<rect x="88" y="74" width="164" height="118" rx="50" fill="url(#s_rim)"/>
<ellipse cx="130" cy="102" rx="38" ry="22" fill="url(#s_spec)"/>

<!-- visor with two clean eyes -->
<rect x="106" y="106" width="128" height="60" rx="30" fill="url(#s_visor)" stroke="#5B47A8" stroke-width="2"/>
<rect x="112" y="111" width="116" height="22" rx="11" fill="url(#s_gloss)"/>
<g>
  <ellipse cx="143" cy="138" rx="17" ry="18" fill="url(#s_eye)"/>
  <ellipse cx="197" cy="138" rx="17" ry="18" fill="url(#s_eye)"/>
  <circle cx="138" cy="132" r="6" fill="#F0FEFF" opacity="0.95"/>
  <circle cx="192" cy="132" r="6" fill="#F0FEFF" opacity="0.95"/>
  <circle cx="149" cy="145" r="2.6" fill="#F0FEFF" opacity="0.55"/>
  <circle cx="203" cy="145" r="2.6" fill="#F0FEFF" opacity="0.55"/>
</g>
<!-- cheeks -->
<ellipse cx="104" cy="158" rx="12" ry="8" fill="#F0ABFC" opacity="0.35"/>
<ellipse cx="236" cy="158" rx="12" ry="8" fill="#F0ABFC" opacity="0.35"/>

<!-- LEFT ARM holding shield -->
<path d="M100,214 Q64,224 58,254" fill="none" stroke="#6845DE" stroke-width="20" stroke-linecap="round"/>
<path d="M100,214 Q64,224 58,254" fill="none" stroke="#8B6FFF" stroke-width="12" stroke-linecap="round" opacity="0.55"/>

<!-- SHIELD: the guard identity, big and readable -->
<g transform="translate(58,278)">
  <path d="M0,-44 L40,-24 L40,20 L0,46 L-40,20 L-40,-24 Z" fill="url(#s_shield)"/>
  <path d="M0,-44 L40,-24 L40,20 L0,46 L-40,20 L-40,-24 Z" fill="url(#s_shieldGloss)"/>
  <path d="M0,-44 L40,-24 L40,20 L0,46 L-40,20 L-40,-24 Z" fill="none" stroke="#0A5F46" stroke-width="2.5"/>
  <path d="M0,-36 L32,-20 L32,16 L0,38 L-32,16 L-32,-20 Z" fill="none" stroke="#D1FAE5" stroke-width="1.6" opacity="0.55"/>
  <path d="M-17,2 L-4,16 L19,-14" fill="none" stroke="#04241B" stroke-width="7" stroke-linecap="round" stroke-linejoin="round"/>
  <path d="M-17,2 L-4,16 L19,-14" fill="none" stroke="#ECFDF5" stroke-width="3.4" stroke-linecap="round" stroke-linejoin="round"/>
</g>

<!-- RIGHT ARM: raised STOP hand -->
<path d="M240,214 Q276,206 282,178" fill="none" stroke="#6845DE" stroke-width="20" stroke-linecap="round"/>
<path d="M240,214 Q276,206 282,178" fill="none" stroke="#8B6FFF" stroke-width="12" stroke-linecap="round" opacity="0.55"/>
<g transform="translate(284,164)">
  <rect x="-17" y="-20" width="34" height="38" rx="15" fill="url(#s_head)"/>
  <rect x="-17" y="-20" width="34" height="38" rx="15" fill="url(#s_rim)"/>
  <ellipse cx="-5" cy="-11" rx="9" ry="6" fill="url(#s_spec)" opacity="0.6"/>
</g>
</g>

<!-- AI badge -->
<g transform="translate(602,168)">
  <rect x="0" y="-26" width="74" height="36" rx="18" fill="url(#neon)" opacity="0.22" filter="url(#bS)"/>
  <rect x="0" y="-26" width="74" height="36" rx="18" fill="none" stroke="url(#neon)" stroke-width="2"/>
  <text x="37" y="0" text-anchor="middle" font-family="DejaVu Sans" font-weight="bold" font-size="22" fill="#B69CFF" letter-spacing="3">AI</text>
  <rect x="88" y="-11" width="52" height="2.5" rx="1.2" fill="url(#neon)" opacity="0.55"/>
</g>
<g font-family="DejaVu Sans" font-weight="bold">
  <text x="600" y="280" font-size="100" fill="#7C5CFF" opacity="0.55" filter="url(#bL)">ThreeAM</text>
  <text x="600" y="280" font-size="100" fill="#7C5CFF" opacity="0.45" filter="url(#bS)">ThreeAM</text>
  <text x="600" y="280" font-size="100" fill="url(#txtg)">ThreeAM</text>
</g>
<rect x="602" y="308" width="140" height="5" rx="2.5" fill="url(#neon)" opacity="0.8" filter="url(#bS)"/>
<rect x="602" y="308" width="140" height="5" rx="2.5" fill="url(#neon)"/>
<g font-family="DejaVu Sans">
  <text x="602" y="364" font-size="27" fill="#DDD6FE">Stop your AI agent from</text>
  <text x="602" y="400" font-size="27" fill="#DDD6FE">breaking production at 3 a.m.</text>
  <text x="602" y="454" font-size="18" fill="#8B93C7">8 doctrines &#183; 3 real post-mortems &#183; zero deps</text>
</g>
<g transform="translate(602,492)">
  <circle cx="10" cy="-5" r="10" fill="#7C5CFF"/><path d="M4,-6 L9,-1 L17,-12" fill="none" stroke="#34D399" stroke-width="2.4" stroke-linecap="round"/>
  <text x="30" y="0" font-family="DejaVu Sans" font-weight="bold" font-size="17" fill="#B69CFF">Sentinel</text>
  <text x="118" y="0" font-family="DejaVu Sans" font-size="14" fill="#8B93C7">&#8212; your production watch-bot</text>
</g>
<g font-family="DejaVu Sans"><rect x="602" y="522" width="3" height="19" rx="1.5" fill="#7C5CFF"/><text x="618" y="537" font-size="15" fill="#8B93C7">by Yacine Mahboub &#183; Founder of WEVIA</text></g>
<rect x="1" y="1" width="1278" height="638" fill="none" stroke="#7C5CFF" stroke-opacity="0.18" stroke-width="2"/>
</svg>