<svg xmlns="http://www.w3.org/2000/svg" viewBox="0 0 1280 640" width="1280" height="640">
<defs>
  <radialGradient id="amb" cx="0.28" cy="0.48" r="0.68">
    <stop offset="0" stop-color="#241452"/><stop offset="0.42" stop-color="#0c0a24"/><stop offset="1" stop-color="#030409"/>
  </radialGradient>
  <linearGradient id="neon" x1="0" y1="0" x2="1" y2="1">
    <stop offset="0" stop-color="#C4A6FF"/><stop offset="0.5" stop-color="#7C5CFF"/><stop offset="1" stop-color="#22D3EE"/>
  </linearGradient>
  <linearGradient id="txtg" x1="0" y1="0" x2="0" y2="1">
    <stop offset="0" stop-color="#FFFFFF"/><stop offset="0.62" stop-color="#F2EEFF"/><stop offset="1" stop-color="#B69CFF"/>
  </linearGradient>
  <filter id="bL" x="-100%" y="-100%" width="300%" height="300%"><feGaussianBlur stdDeviation="30"/></filter>
  <filter id="bM" x="-80%" y="-80%" width="260%" height="260%"><feGaussianBlur stdDeviation="12"/></filter>
  <filter id="bS" x="-60%" y="-60%" width="220%" height="220%"><feGaussianBlur stdDeviation="4.5"/></filter>
  <pattern id="mesh" width="48" height="48" patternUnits="userSpaceOnUse">
    <path d="M48 0H0V48" fill="none" stroke="#8B5CF6" stroke-opacity="0.06" stroke-width="1"/>
  </pattern>
  <linearGradient id="fade" x1="0" y1="0" x2="1" y2="0">
    <stop offset="0" stop-color="#000" stop-opacity="0"/><stop offset="1" stop-color="#000" stop-opacity="0.55"/>
  </linearGradient>
</defs>

<rect width="1280" height="640" fill="url(#amb)"/>
<rect width="1280" height="640" fill="url(#mesh)"/>
<ellipse cx="330" cy="320" rx="340" ry="320" fill="#7C5CFF" opacity="0.16" filter="url(#bL)"/>
<ellipse cx="335" cy="318" rx="130" ry="130" fill="#22D3EE" opacity="0.11" filter="url(#bL)"/>
<rect x="640" y="0" width="640" height="640" fill="url(#fade)"/>

<!-- threat traces from the left, halted at the shield -->
<g stroke-linecap="round" fill="none">
  <path d="M22,132 C120,178 168,232 200,262" stroke="#F43F5E" stroke-width="7" opacity="0.30" filter="url(#bM)"/>
  <path d="M22,132 C120,178 168,232 200,262" stroke="#FDA4AF" stroke-width="1.8" opacity="0.85"/>
  <path d="M16,512 C120,478 170,414 202,378" stroke="#F43F5E" stroke-width="7" opacity="0.28" filter="url(#bM)"/>
  <path d="M16,512 C120,478 170,414 202,378" stroke="#FDA4AF" stroke-width="1.8" opacity="0.78"/>
  <path d="M8,322 C90,322 150,321 206,320" stroke="#F43F5E" stroke-width="7" opacity="0.26" filter="url(#bM)"/>
  <path d="M8,322 C90,322 150,321 206,320" stroke="#FDA4AF" stroke-width="1.7" opacity="0.72"/>
  <path d="M20,232 C110,252 165,282 200,300" stroke="#F43F5E" stroke-width="6" opacity="0.22" filter="url(#bM)"/>
  <path d="M20,232 C110,252 165,282 200,300" stroke="#FDA4AF" stroke-width="1.4" opacity="0.6"/>
  <path d="M18,414 C110,398 165,362 200,342" stroke="#F43F5E" stroke-width="6" opacity="0.22" filter="url(#bM)"/>
  <path d="M18,414 C110,398 165,362 200,342" stroke="#FDA4AF" stroke-width="1.4" opacity="0.6"/>
</g>
<!-- impact sparks on shield edge -->
<g fill="#FFE4E6">
  <circle cx="203" cy="264" r="9" fill="#F43F5E" opacity="0.5" filter="url(#bM)"/><circle cx="203" cy="264" r="3.4"/>
  <circle cx="205" cy="376" r="9" fill="#F43F5E" opacity="0.5" filter="url(#bM)"/><circle cx="205" cy="376" r="3.4"/>
  <circle cx="209" cy="320" r="10" fill="#F43F5E" opacity="0.5" filter="url(#bM)"/><circle cx="209" cy="320" r="3.6"/>
  <circle cx="203" cy="301" r="7" fill="#F43F5E" opacity="0.4" filter="url(#bM)"/><circle cx="203" cy="301" r="2.6"/>
  <circle cx="203" cy="341" r="7" fill="#F43F5E" opacity="0.4" filter="url(#bM)"/><circle cx="203" cy="341" r="2.6"/>
</g>

<!-- SHIELD -->
<g transform="translate(332,320)">
  <path d="M0,-178 L154,-89 L154,89 L0,178 L-154,89 L-154,-89 Z" fill="none" stroke="#7C5CFF" stroke-width="20" opacity="0.55" filter="url(#bL)"/>
  <path d="M0,-178 L154,-89 L154,89 L0,178 L-154,89 L-154,-89 Z" fill="none" stroke="url(#neon)" stroke-width="10" opacity="0.9" filter="url(#bM)"/>
  <path d="M0,-178 L154,-89 L154,89 L0,178 L-154,89 L-154,-89 Z" fill="#080a1c" fill-opacity="0.72" stroke="url(#neon)" stroke-width="3.2"/>
  <path d="M0,-178 L154,-89 L154,89 L0,178 L-154,89 L-154,-89 Z" fill="none" stroke="#F5F3FF" stroke-width="1.2" opacity="0.9"/>
  <path d="M0,-118 L102,-59 L102,59 L0,118 L-102,59 L-102,-59 Z" fill="none" stroke="#22D3EE" stroke-width="1.5" opacity="0.4"/>
  <path d="M0,-64 L55,-32 L55,32 L0,64 L-55,32 L-55,-32 Z" fill="#7C5CFF" fill-opacity="0.10" stroke="#A78BFA" stroke-width="1" opacity="0.5"/>
  <g>
    <path d="M-42,7 L-12,40 L46,-32" fill="none" stroke="#10B981" stroke-width="28" stroke-linecap="round" stroke-linejoin="round" opacity="0.55" filter="url(#bL)"/>
    <path d="M-42,7 L-12,40 L46,-32" fill="none" stroke="#34D399" stroke-width="14" stroke-linecap="round" stroke-linejoin="round" opacity="0.92" filter="url(#bM)"/>
    <path d="M-42,7 L-12,40 L46,-32" fill="none" stroke="#F0FDF9" stroke-width="6.8" stroke-linecap="round" stroke-linejoin="round"/>
  </g>
  <g fill="#67E8F9">
    <circle cx="0" cy="-178" r="7.5" opacity="0.75" filter="url(#bM)"/><circle cx="0" cy="-178" r="3.4" fill="#F0FEFF"/>
    <circle cx="154" cy="-89" r="6" opacity="0.7" filter="url(#bM)"/><circle cx="154" cy="-89" r="2.8" fill="#F0FEFF"/>
    <circle cx="154" cy="89" r="6" opacity="0.7" filter="url(#bM)"/><circle cx="154" cy="89" r="2.8" fill="#F0FEFF"/>
    <circle cx="0" cy="178" r="6" opacity="0.7" filter="url(#bM)"/><circle cx="0" cy="178" r="2.8" fill="#F0FEFF"/>
    <circle cx="-154" cy="89" r="6" opacity="0.7" filter="url(#bM)"/><circle cx="-154" cy="89" r="2.8" fill="#F0FEFF"/>
    <circle cx="-154" cy="-89" r="6" opacity="0.7" filter="url(#bM)"/><circle cx="-154" cy="-89" r="2.8" fill="#F0FEFF"/>
  </g>
</g>

<!-- WORDMARK  (84px, largeur mesuree 569px, x=620 -> fin 1189, marge 91) -->
<g font-family="DejaVu Sans" font-weight="bold">
  <text x="620" y="268" font-size="84" fill="#7C5CFF" opacity="0.6" filter="url(#bL)">AgentGuard</text>
  <text x="620" y="268" font-size="84" fill="#8B5CF6" opacity="0.5" filter="url(#bS)">AgentGuard</text>
  <text x="620" y="268" font-size="84" fill="url(#txtg)">AgentGuard</text>
</g>
<rect x="622" y="296" width="140" height="5" rx="2.5" fill="url(#neon)" opacity="0.8" filter="url(#bS)"/>
<rect x="622" y="296" width="140" height="5" rx="2.5" fill="url(#neon)"/>

<g font-family="DejaVu Sans">
  <text x="622" y="356" font-size="28" fill="#DDD6FE">Stop your AI agent from</text>
  <text x="622" y="394" font-size="28" fill="#DDD6FE">breaking production at 3 a.m.</text>
  <text x="622" y="452" font-size="18" fill="#8B93C7">8 doctrines &#183; 3 post-mortems &#183; zero deps</text>
</g>
<g font-family="DejaVu Sans">
  <rect x="622" y="486" width="3" height="20" rx="1.5" fill="#7C5CFF"/>
  <text x="638" y="502" font-size="16" fill="#7E86BB">by Yacine Mahboub &#183; Founder of WEVIA</text>
</g>
<rect x="1" y="1" width="1278" height="638" fill="none" stroke="#7C5CFF" stroke-opacity="0.18" stroke-width="2"/>
</svg>
